<?xml version="1.0" encoding="UTF-8"?><svg id="a" xmlns="http://www.w3.org/2000/svg" viewBox="0 0 1016 282"><defs><style>.b{opacity:.6;}.c{opacity:.8;}</style></defs><g><path class="b" d="M12.33036,83.7121c-.33743-4.37604,3.65122-4.82378,6.11643-6.26017,31.01317-18.072,62.12991-35.97376,93.18325-53.97236,4.24902-2.45868,7.81665-3.93503,12.99785-.87855,31.19014,18.39945,62.67776,36.29448,93.95476,54.54366,2.42851,1.41967,6.34703,1.99423,6.23346,6.22327-4.30591,.46099-7.59971,3.15007-11.15389,5.19119-31.74146,18.22247-63.44621,36.51162-95.1575,54.78078-18.38946-10.71634-36.54179-21.85351-55.23178-32.01854-16.96306-9.22653-32.70687-20.73131-50.94259-27.60926M116.55719,36.27699c-22.56508,12.93097-45.1536,25.81872-67.65854,38.85673-1.99423,1.15584-5.54514,1.79054-4.99729,4.84702,.4877,2.71579,3.86836,2.9629,6.16659,3.80149,22.00378,8.0238,44.78946,11.41119,68.15276,11.23401,23.36024-.13355,46.27927-3.0365,68.34992-11.07029,2.30495-.84185,5.71559-1.11588,6.06301-3.91505,.43102-3.47425-3.33377-4.23577-5.63872-5.58877-21.13195-12.36987-42.32405-24.62944-63.51961-36.88901-2.11778-1.22598-4.17216-3.26037-6.91812-1.27613"/><path d="M12.33056,83.71006c18.23573,6.87816,33.97953,18.38273,50.94259,27.60926,18.68672,10.16523,36.84232,21.30566,55.23178,32.01874,.06015,40.82425,.12029,81.6483,.1837,122.46929-17.82815-7.70329-33.79583-18.76033-50.66857-28.18382-16.63908-9.28994-33.04756-18.99072-49.57308-28.47783-3.66448-2.10433-6.84472-4.11548-6.79782-9.27975,.3407-38.71972,.47751-77.43618,.68139-116.1559m14.71152,111.66955c.20042,2.88277,2.08781,4.41947,4.38603,5.74902,21.39925,12.35642,42.77505,24.753,64.16757,37.12287,1.60684,.92871,3.30726,2.54207,5.20118,1.353,2.42525-1.52325,1.0857-4.0488,.77844-6.08299-3.21368-21.23573-10.77649-40.97798-20.87811-59.81497-1.35952-2.53555-2.98981-4.91064-6.13662-5.51863,.93218-6.82453-4.06532-11.14043-7.1687-16.08777-9.1462-14.5947-20.66097-27.23166-33.83579-38.28218-2.57551-2.15795-8.16754-7.08184-8.34125,1.20926-.5244,25.63828,.00999,51.30001,.23712,76.95174,.00999,1.13912,1.03555,2.26825,1.59012,3.40064"/><path class="c" d="M118.68884,265.81062c-.06361-40.82425-.12376-81.6485-.18391-122.47275,31.71149-18.26916,63.41604-36.55504,95.1575-54.78078,3.55438-2.03765,6.84798-4.7302,11.15389-5.18772,1.73366,38.68302,.52114,77.38256,.64469,116.07557,.01346,3.88162-1.90411,6.66774-5.15102,8.51823-33.85924,19.29818-67.74519,38.56946-101.62115,57.84746m41.69934-98.19726c-12.34316,19.19787-19.85928,40.29639-24.40904,62.52403-.61472,3.01978-2.00768,7.06532,.51115,9.08279,2.86605,2.2917,5.82589-1.13239,8.4014-2.60548,20.38368-11.6316,40.68724-23.39694,60.96408-35.20551,2.32819-1.35626,5.5484-2.0978,5.54187-5.78919,1.7938-26.37656,.39085-52.78309,.73481-79.1731,.02345-1.86394,.2306-4.07878-1.61683-5.20118-2.56552-1.55668-4.02515,.83186-5.68888,2.13797-18.85045,14.76841-32.7401,33.60214-44.43857,54.22967"/><path d="M116.55719,36.27699c2.74596-1.98424,4.80033,.05016,6.91812,1.27613,21.19556,12.25957,42.38766,24.51914,63.51961,36.88901,2.30495,1.353,6.06974,2.11452,5.63872,5.58877-.34742,2.79918-3.75806,3.0732-6.06301,3.91505-22.07065,8.03379-44.98968,10.93675-68.34992,11.07029,.10031-11.75515,.49117-23.52029,.20389-35.26566-.19043-7.83011,1.89065-15.91079-1.86741-23.4736"/><path class="c" d="M116.55719,36.27699c3.75806,7.56281,1.67698,15.6435,1.86741,23.4736,.28728,11.74536-.10358,23.51051-.20389,35.26566-23.3633,.17718-46.14898-3.21021-68.15276-11.23401-2.29822-.83859-5.67889-1.0857-6.16659-3.80149-.54785-3.05648,3.00306-3.69118,4.99729-4.84702,22.50493-13.03801,45.09346-25.92576,67.65854-38.85673"/><path class="b" d="M74.55977,168.18751c3.1468,.60799,4.78035,2.98308,6.13988,5.51843,10.09836,18.84046,17.66117,38.57945,20.87464,59.81497,.31073,2.03439,1.64701,4.55975-.77824,6.0832-1.89412,1.18907-3.59434-.42429-5.19792-1.34974-21.39252-12.37314-42.77158-24.76646-64.16757-37.12613-2.30149-1.32955-4.18887-2.86625-4.39276-5.74902,15.84412-9.06281,31.68131-18.12889,47.52197-27.1917"/><path class="c" d="M74.55977,168.18751c-15.84066,9.06281-31.67784,18.12889-47.5185,27.1917-.55457-1.13239-1.57687-2.26152-1.58686-3.39738-.23039-25.655-.76499-51.31673-.23712-76.955,.17045-8.2911,5.76228-3.36721,8.34125-1.206,13.17156,11.04705,24.68633,23.68422,33.83253,38.27892,3.10338,4.9506,8.10067,9.26303,7.1687,16.08777"/><path class="b" d="M211.39581,195.61939c.00999,3.69118-3.21348,4.43619-5.53861,5.78899-20.28011,11.81204-40.58366,23.57738-60.96408,35.20551-2.57877,1.47329-5.53515,4.89718-8.40466,2.60569-2.51863-2.01767-1.12566-6.06301-.50768-9.08279,4.54629-22.22438,12.06241-43.32636,24.40557-62.52077,3.31379,1.77709,6.62085,3.55091,9.93137,5.328,13.78282,7.39603,26.42998,16.84949,41.07809,22.67538"/><path d="M211.39581,195.61939c-14.64812-5.82589-27.29528-15.27935-41.07809-22.67538-3.31053-1.77709-6.61759-3.55091-9.93137-5.328,11.69847-20.631,25.59159-39.46473,44.43877-54.23293,1.66352-1.30284,3.12662-3.69465,5.68888-2.13471,1.84722,1.11914,1.64354,3.33397,1.62009,5.19792-.34742,26.38981,1.05553,52.79654-.73828,79.1731"/></g><g><path d="M292.70508,92.23047h42.83789c8.93652,0,16.12305,2.09277,21.56152,6.27734,5.43652,4.18457,8.15625,10.0127,8.15625,17.48242,0,4.11426-.79297,7.63672-2.37598,10.56836-1.58496,2.93262-3.67676,5.27246-6.27734,7.02148-2.60059,1.75-5.46094,2.93262-8.58203,3.5459v1.06445c3.59277,.23633,7.05762,1.24121,10.39062,3.01367,3.33398,1.77344,6.0752,4.35059,8.22754,7.73145,2.15137,3.38086,3.22754,7.60059,3.22754,12.65918,0,5.81641-1.49023,10.76953-4.46875,14.85938s-7.01074,7.21094-12.09277,9.36133c-5.08301,2.15234-10.76953,3.22754-17.05762,3.22754h-43.54688V92.23047Zm23.0498,39.36328h11.34863c3.59277,0,6.52441-.48438,8.79395-1.45312s3.93652-2.31641,5-4.04297c1.06445-1.72559,1.59668-3.74707,1.59668-6.06445,0-3.45117-1.1123-6.19336-3.33398-8.22656-2.22266-2.0332-5.38965-3.0498-9.50391-3.0498h-13.90137v22.83691Zm0,40.92383h12.625c6.33496,0,10.89746-1.14551,13.68848-3.43945,2.78906-2.29297,4.18457-5.42578,4.18457-9.39746,0-2.64746-.58008-4.95312-1.73828-6.91602-1.15918-1.96094-2.88379-3.47461-5.17676-4.53906-2.29395-1.06348-5.16699-1.5957-8.61719-1.5957h-14.96582v25.8877Z"/><path d="M399.83691,186.4541c-5.41504-2.6709-9.62305-6.66699-12.625-11.98633-3.00293-5.31934-4.50391-11.90332-4.50391-19.75195v-7.23438c0-7.89648,1.57129-14.47949,4.7168-19.75293,3.14355-5.27148,7.36426-9.21973,12.66016-11.84375,5.29492-2.625,11.1582-3.93652,17.58887-3.93652,6.85547,0,12.88379,1.41797,18.08594,4.25488,5.20117,2.83691,9.2666,6.91504,12.19922,12.23438,2.93066,5.31934,4.39746,11.66797,4.39746,19.04395v8.36914h-47.66211v3.47461c0,4.35156,1.3125,7.83789,3.93652,10.46191s5.94531,3.93652,9.96484,3.93652c2.26953,0,4.31445-.34277,6.13477-1.02832s3.29883-1.64258,4.43359-2.87305c1.13477-1.22852,1.7959-2.62402,1.98535-4.18457h20.70996c-.1416,2.55371-.86328,5.27344-2.16309,8.15625-1.30078,2.88477-3.27441,5.5918-5.92188,8.12109-2.64844,2.53027-6.04102,4.58691-10.17773,6.1709-4.1377,1.58301-9.11426,2.37598-14.92969,2.37598-7.14062,0-13.41699-1.33691-18.83008-4.00781Zm30.88672-43.29883v-.49707c0-2.88379-.53125-5.41309-1.5957-7.58887-1.06348-2.17383-2.56543-3.87598-4.50293-5.10645-1.93945-1.22949-4.20898-1.84375-6.80957-1.84375s-4.88281,.61426-6.84375,1.84375c-1.96289,1.23047-3.5,2.93262-4.61035,5.10645-1.11133,2.17578-1.66699,4.70508-1.66699,7.58887v.49707h26.0293Z"/><path d="M531.15234,137.83594c-2.45898,7.70703-4.72852,14.70508-6.80859,20.99316-2.08105,6.28906-3.86523,11.70215-5.35449,16.24219-1.48926,4.53906-2.66016,7.99121-3.51074,10.35449l-1.77344,4.68066c-3.45215,9.0791-7.91992,15.5918-13.4043,19.54004-5.48535,3.94727-12.7666,5.92188-21.84473,5.92188-2.03418,0-4.19727-.08301-6.49023-.24805-2.29395-.16602-4.03125-.38965-5.21289-.67383v-15.60352c.61426,.14258,1.56055,.25977,2.83691,.35547,1.27734,.09375,2.48242,.1416,3.61719,.1416,4.25586,0,7.44727-.75684,9.5752-2.26953,2.12793-1.51367,3.4043-3.90137,3.83008-7.16406l.2832-1.41797-25.17773-75.39258h24.89453l13.5459,57.30664h.92285l13.97168-57.30664h23.97266c-2.79004,8.65234-5.41504,16.83301-7.87305,24.54004Z"/><path d="M602.3252,116.30957c5.36621,2.9082,9.51562,7.0459,12.44727,12.41211,2.93164,5.36719,4.39746,11.64355,4.39746,18.83008v6.66699c0,7.70801-1.46582,14.26855-4.39746,19.68164-2.93164,5.41504-7.08105,9.52832-12.44727,12.34082-5.36719,2.8125-11.71484,4.2207-19.04297,4.2207-7.37598,0-13.75977-1.4082-19.14941-4.2207-5.39062-2.8125-9.54004-6.91504-12.44727-12.30469-2.9082-5.39062-4.3623-11.93945-4.3623-19.64648v-6.5957c0-7.09277,1.46484-13.32227,4.39746-18.68945,2.93164-5.36523,7.09277-9.5498,12.48242-12.55273,5.39062-3.00293,11.74902-4.50391,19.0791-4.50391,7.32812,0,13.67578,1.4541,19.04297,4.36133Zm-26.59668,15.17773c-1.91504,1.77344-3.32227,4.09082-4.21973,6.95117-.89844,2.86133-1.34766,5.92188-1.34766,9.18457v7.02148c0,3.16797,.42578,6.19531,1.27637,9.07812,.85156,2.88477,2.23438,5.2373,4.14941,7.05762s4.47949,2.73047,7.69531,2.73047c3.21484,0,5.76758-.91016,7.66016-2.73047,1.89062-1.82031,3.25-4.16016,4.07812-7.02148,.82617-2.86035,1.24121-5.89844,1.24121-9.11426v-7.02148c0-3.30859-.43848-6.39453-1.3125-9.25586-.875-2.86035-2.25879-5.16504-4.14941-6.91504-1.8916-1.74902-4.39746-2.62402-7.51758-2.62402-3.12109,0-5.63867,.88672-7.55371,2.65918Z"/><path d="M635.97949,113.2959h21.91602v13.12109h1.13477c.66113-1.93848,1.83105-4.00781,3.51074-6.20605,1.67773-2.19922,4.04199-4.08984,7.0918-5.67383s6.93848-2.37598,11.66699-2.37598c7.6123,0,13.68848,2.22266,18.22852,6.66699,4.53906,4.44434,6.80859,11.15918,6.80859,20.14258v50.07227h-22.625v-44.04395c0-3.59277-.56738-6.40625-1.70215-8.44043-1.13477-2.03223-2.60156-3.48633-4.39746-4.36133-1.79785-.875-3.71289-1.3125-5.74512-1.3125-2.60059,0-4.90625,.65039-6.91504,1.9502-2.01074,1.30176-3.57031,3.16895-4.68066,5.60352-1.1123,2.43555-1.66699,5.35449-1.66699,8.75879v41.8457h-22.625V113.2959Z"/><path d="M760.59375,113.96973c2.88281,1.0166,5.33008,2.4707,7.33984,4.36133,2.00977,1.8916,3.48633,4.11426,4.43359,6.66699h1.06348v-37.87402h22.69629v101.91895h-22.4834v-12.12793h-1.06445c-.61426,1.93945-1.58398,3.7002-2.90723,5.28418-1.32422,1.58398-2.94336,2.94336-4.8584,4.07812s-4.05469,2.00977-6.41895,2.62402c-2.36523,.61328-4.89355,.92188-7.58887,.92188-5.62695,0-10.52148-1.33594-14.68164-4.00781-4.16113-2.66992-7.3877-6.55957-9.68066-11.66699-2.29395-5.10645-3.44043-11.27637-3.44043-18.51074v-9.07812c0-7.23438,1.1582-13.38086,3.47559-18.44043,2.31641-5.05957,5.56738-8.93652,9.75195-11.63184s9.08984-4.04297,14.7168-4.04297c3.54688,0,6.76172,.50879,9.64648,1.52539Zm-7.9082,18.12109c-2.01074,1.37207-3.57129,3.4043-4.68164,6.09961-1.11133,2.69434-1.66602,6.00488-1.66602,9.92871v6.09961c0,3.92578,.55469,7.24707,1.66602,9.96484,1.11035,2.71973,2.68359,4.76465,4.7168,6.13574,2.03223,1.37109,4.39746,2.05664,7.09277,2.05664,2.69434,0,5.05859-.68555,7.0918-2.05664s3.62891-3.36914,4.78809-5.99316c1.1582-2.625,1.7373-5.82715,1.7373-9.61035v-7.58887c0-3.64062-.5918-6.73828-1.77344-9.29102-1.18164-2.55371-2.81348-4.49219-4.89355-5.81641-2.08105-1.32324-4.44531-1.98535-7.09277-1.98535-2.64844,0-4.97656,.68555-6.98535,2.05664Z"/><path d="M817.90039,189.04297V92.23047h24.04297l24.89453,55.17969h.78027l24.89453-55.17969h23.90137v96.8125h-20.99316v-60.35645h-1.13477l-20.35547,45.81738h-13.68848l-20.56836-45.81738h-1.06348v60.35645h-20.70996Z"/><path d="M1001.24023,189.04297h-62.2002V92.23047h23.33398v77.37891h38.86621v19.43359Z"/></g></svg>