<?xml version="1.0" encoding="UTF-8"?><svg id="a" xmlns="http://www.w3.org/2000/svg" viewBox="0 0 500 500"><defs><style>.b{opacity:.6;}.c{opacity:.8;}</style></defs><path class="b" d="M52.69216,135.18125c-.62043-8.04609,6.71339-8.86933,11.24609-11.51038C120.96117,90.44246,178.17454,57.52707,235.27132,24.43361c7.81254-4.5207,14.37223-7.23522,23.89873-1.61537,57.34833,33.83048,115.24361,66.7335,172.75163,100.28769,4.46522,2.6103,11.67008,3.66672,11.46127,11.44252-7.91713,.84761-13.97335,5.79193-20.5083,9.54487-58.36201,33.50508-116.65654,67.13275-174.96306,100.72367-33.81211-19.7038-67.18823-40.18135-101.55291-58.87147-31.18943-16.96454-60.13707-38.118-93.66652-50.76427M244.33072,47.96383c-41.48969,23.77577-83.0225,47.47206-124.4016,71.44464-3.66672,2.12521-10.19567,3.29221-9.18836,8.91207,.89672,4.99343,7.11264,5.44779,11.33831,6.98968,40.45764,14.75311,82.35296,20.9814,125.31031,20.65562,42.95173-.24555,85.09222-5.58312,125.67282-20.35459,4.23804-1.54789,10.50907-2.05173,11.14787-7.19848,.7925-6.38799-6.1297-7.78817-10.36774-10.27589-38.85465-22.74409-77.81988-45.28537-116.79149-67.82665-3.8939-2.25417-7.67121-5.99474-12.72012-2.34639"/><path d="M52.69253,135.1775c33.52945,12.64664,62.47709,33.79974,93.66652,50.76427,34.35869,18.69049,67.74081,39.17405,101.55291,58.87185,.11059,75.06225,.22118,150.12413,.33777,225.18038-32.78006-14.16379-62.13932-34.49402-93.16268-51.82069-30.59375-17.08112-60.7635-34.91764-91.14844-52.36127-6.73775-3.86916-12.58516-7.56699-12.49894-17.06238,.62643-71.19272,.87797-142.37944,1.25286-213.57216m27.04961,205.32325c.36851,5.30046,3.83879,8.12594,8.06446,10.57055,39.34612,22.71935,78.64912,45.51255,117.98287,68.25664,2.95445,1.70759,6.08096,4.67403,9.56324,2.48772,4.45922-2.80074,1.99625-7.44441,1.4313-11.1846-5.90889-39.04546-19.81439-75.34491-38.38792-109.97989-2.49971-4.66203-5.49727-9.02903-11.2832-10.14693,1.71396-12.54805-7.47477-20.48355-13.18085-29.58007-16.81683-26.8348-37.98867-50.06999-62.2128-70.38822-4.73551-3.96775-15.0174-13.02115-15.3368,2.22343-.9642,47.14029,.01837,94.32369,.43599,141.48872,.01837,2.09447,1.90403,4.17056,2.9237,6.25266"/><path class="c" d="M248.25011,470c-.11696-75.06225-.22755-150.1245-.33814-225.18675,58.3069-33.59093,116.60105-67.2126,174.96306-100.72367,6.53532-3.74657,12.59116-8.69726,20.5083-9.5385,3.18762,71.12524,.9582,142.28085,1.18538,213.42446,.02474,7.137-3.50102,12.25977-9.47102,15.6622-62.25591,35.48296-124.56092,70.91643-186.84757,106.36228m76.67124-180.55218c-22.69498,35.29852-36.51463,74.09168-44.88013,114.96094-1.13027,5.55238-3.69146,12.99079,.93983,16.70024,5.26972,4.21367,10.71188-2.08209,15.44739-4.79062,37.47883-21.38664,74.81033-43.01921,112.09272-64.73125,4.28078-2.49372,10.20166-3.85716,10.18967-10.6444,3.29821-48.49774,.71865-97.05058,1.35107-145.57306,.04311-3.42717,.42399-7.49951-2.97281-9.56324-4.71714-2.86222-7.40092,1.52952-10.45996,3.93101-34.65972,27.1542-60.19818,61.78318-81.70778,99.71037"/><path d="M244.33072,47.96383c5.04891-3.64835,8.82622,.09222,12.72012,2.34639,38.97161,22.54128,77.93685,45.08256,116.79149,67.82665,4.23804,2.48772,11.16024,3.8879,10.36774,10.27589-.6388,5.14676-6.90983,5.6506-11.14787,7.19848-40.5806,14.77148-82.72109,20.10905-125.67282,20.35459,.18444-21.61382,.90309-43.24601,.37488-64.84184-.35014-14.39697,3.47628-29.25467-3.43354-43.16017"/><path class="c" d="M244.33072,47.96383c6.90983,13.9055,3.0834,28.7632,3.43354,43.16017,.52821,21.59583-.19044,43.22802-.37488,64.84184-42.95736,.32577-84.85267-5.90252-125.31031-20.65562-4.22567-1.54189-10.44159-1.99625-11.33831-6.98968-1.00731-5.61986,5.52164-6.78686,9.18836-8.91207,41.3791-23.97258,82.91191-47.66887,124.4016-71.44464"/><path class="b" d="M167.11139,290.50349c5.78593,1.1179,8.78948,5.4849,11.2892,10.14656,18.56753,34.64135,32.47303,70.9348,38.38155,109.97989,.57132,3.74057,3.0283,8.38386-1.43092,11.18498-3.48265,2.18631-6.6088-.78013-9.55724-2.48172-39.33375-22.75009-78.64275-45.53729-117.98287-68.26264-4.23167-2.44461-7.70195-5.27009-8.07683-10.57055,29.13208-16.66351,58.25142-33.33301,87.37713-49.99651"/><path class="c" d="M167.11139,290.50349c-29.12571,16.66351-58.24504,33.33301-87.37075,49.99651-1.01968-2.08209-2.89934-4.15819-2.91771-6.24666-.42362-47.17103-1.40656-94.35443-.43599-141.49472,.3134-15.24458,10.59492-6.19118,15.3368-2.21743,24.21813,20.31186,45.38996,43.54742,62.2068,70.38222,5.70608,9.10251,14.89444,17.03164,13.18085,29.58007"/><path class="b" d="M418.70746,340.94162c.01837,6.78686-5.90852,8.15668-10.18367,10.64403-37.28839,21.71841-74.61989,43.35098-112.09272,64.73125-4.74151,2.7089-10.1773,9.00429-15.45339,4.79099-4.63092-3.70983-2.06972-11.14787-.93346-16.70024,8.35912-40.86326,22.17877-79.6628,44.87375-114.95495,6.09296,3.26747,12.17354,6.52895,18.2605,9.79642,25.34202,13.59885,48.59596,30.98062,75.52898,41.6925"/><path d="M418.70746,340.94162c-26.93302-10.71188-50.18695-28.09366-75.52898-41.6925-6.08696-3.26747-12.16755-6.52895-18.2605-9.79642,21.50961-37.93356,47.05444-72.56254,81.70816-99.71637,3.05866-2.3955,5.74882-6.79324,10.45996-3.92501,3.39643,2.05773,3.02192,6.13007,2.97881,9.55724-.6388,48.5221,1.94076,97.07532-1.35745,145.57306"/></svg>