<?xml version="1.0" encoding="UTF-8"?><svg id="a" xmlns="http://www.w3.org/2000/svg" viewBox="0 0 732 454"><defs><style>.b{fill:#095ea1;}.c{fill:#59ade0;}.d{fill:#547ebe;}</style></defs><g><path class="c" d="M252.26215,74.14771c-.36663-4.75463,3.9671-5.2411,6.64558-6.80175,33.69619-19.63546,67.50492-39.08594,101.24476-58.64164,4.61661-2.67139,8.49289-4.27546,14.12232-.95456,33.88848,19.99123,68.10016,39.4344,102.08301,59.26236,2.6386,1.54249,6.89612,2.16675,6.77273,6.76166-4.67842,.50087-8.25718,3.42259-12.11884,5.64029-34.48749,19.79894-68.9351,39.67032-103.3898,59.51999-19.98037-11.64344-39.70311-23.74411-60.01001-34.78854-18.43057-10.02474-35.53641-22.52483-55.34976-29.99781m113.24375-51.53883c-24.51724,14.04966-49.05995,28.05236-73.51184,42.21832-2.16675,1.25583-6.02486,1.94545-5.42962,5.26635,.52989,2.95073,4.20302,3.21922,6.70007,4.13036,23.90737,8.71796,48.6643,12.3984,74.04882,12.2059,25.38119-.1451,50.283-3.2992,74.26303-12.02801,2.50436-.91468,6.21006-1.21242,6.58754-4.25375,.46831-3.77481-3.62218-4.60222-6.12654-6.07227-22.96013-13.44002-45.9856-26.76019-69.01485-40.08037-2.301-1.33204-4.5331-3.54243-7.51662-1.38654"/><path class="b" d="M252.26237,74.14549c19.81334,7.4732,36.91918,19.97306,55.34976,29.99781,20.30336,11.04465,40.02964,23.14887,60.01001,34.78876,.06535,44.35605,.1307,88.71189,.1996,133.0644-19.37051-8.36972-36.71959-20.38333-55.05202-30.62207-18.07857-10.09364-35.90659-20.63365-53.86176-30.94151-3.9815-2.28638-7.43687-4.47151-7.38592-10.08256,.37017-42.06946,.51882-84.13537,.74034-126.20482m15.98425,121.33035c.21776,3.13216,2.26843,4.80181,4.76548,6.24639,23.25055,13.4254,46.47562,26.89444,69.71886,40.33446,1.74585,1.00905,3.59338,2.76199,5.65114,1.47005,2.63506-1.65503-2.43688-4.50119-3.38211-6.52674-10.2279-21.91749-20.54357-36.92778-26-63-.64033-3.05964,4.2951-7.40768,.87606-8.06828,1.01282-7.41494-4.41702-12.10421-7.78888-17.47956-9.93746-15.85732-23.77258-25.44564-38.08719-37.45217-2.79832-2.34464-7.54996-11.8364-7.7387-2.82802-.56977,27.85631,.01085,55.73809,.25764,83.60902,.01085,1.23767,1.12513,2.46448,1.72769,3.69484"/><path class="d" d="M367.82196,272c-.06912-44.35605-.13447-88.71211-.19982-133.06816,34.45492-19.84967,68.90231-39.71751,103.3898-59.51999,3.86187-2.21394,7.44041-5.13942,12.11884-5.63652,1.88364,42.02958,.56622,84.07711,.70047,126.11754,.01462,4.21742-2.06884,7.24459-5.59665,9.25516-36.78848,20.96772-73.60599,41.90619-110.41264,62.85198m45.30685-106.69254c-13.411,20.85873-21.57736,43.78252-26.52072,67.93313-.6679,3.28103-2.18137,7.67656,.55537,9.86857,3.114,2.48996,6.3299-1.23036,9.12823-2.83089,22.14712-12.63787,44.20719-25.42107,66.23823-38.25122,2.52961-1.4736,6.0284-2.27929,6.02132-6.29003,1.94899-28.65846,.42467-57.34948,.79838-86.02255,.02548-2.0252,.25055-4.43164-1.75671-5.65114-2.78747-1.69136-4.37338,.90383-6.18104,2.32293-20.48124,16.04606-35.57252,36.50914-48.28306,58.92121"/><path class="b" d="M365.50589,22.60887c2.98352-2.1559,5.21562,.0545,7.51662,1.38654,23.02924,13.32017,46.05472,26.64035,69.01485,40.08037,2.50436,1.47005,6.59485,2.29745,6.12654,6.07227-.37748,3.04134-4.08318,3.33907-6.58754,4.25375-23.98004,8.72881-48.88184,11.88291-74.26303,12.02801,.10899-12.77212,.53366-25.55509,.22153-38.31657-.20691-8.50751,2.05422-17.28727-2.02896-25.50436"/><path class="d" d="M365.50589,22.60887c4.08318,8.21709,1.82206,16.99685,2.02896,25.50436,.31213,12.76148-.11254,25.54446-.22153,38.31657-25.38451,.19251-50.14144-3.48794-74.04882-12.2059-2.49705-.91114-6.17018-1.17963-6.70007-4.13036-.59524-3.32091,3.26287-4.01052,5.42962-5.26635,24.45189-14.16596,48.9946-28.16866,73.51184-42.21832"/><path class="c" d="M324,167c11,22,20,47,25.22679,69.91683,.49722,2.18004,1.78949,4.95422-.84557,6.60947-2.05798,1.29194-3.90529-.461-5.6476-1.46651-23.24324-13.44356-46.47186-26.90906-69.71886-40.338-2.50059-1.44458-4.55126-3.11422-4.77279-6.24639,17.21483-9.84686,34.42214-19.69726,51.6332-29.54412"/><path class="d" d="M268.24574,195.4754c-.60255-1.23036-1.71329-2.45717-1.72414-3.6913-.25033-27.87447-.83117-55.75626-.25764-83.61257,.1852-9.00838,4.12892-3.49152,7.06288-1.31033,17.67316,13.13879,25.67316,24.13879,37.67316,39.13879,3.9658,4.95725,9,13,13,21"/><path class="c" d="M468.54923,195.73636c.01085,4.01052-3.49148,4.81998-6.01777,6.28981-22.03459,12.83392-44.09465,25.61712-66.23823,38.25122-2.80187,1.60075-6.014,5.32085-9.13177,2.83111-2.73652-2.19223-1.22305-6.58754-.5516-9.86857,4.9396-24.14707,13.10596-47.07463,26.51696-67.92959,3.60047,1.93083,7.19363,3.85811,10.79056,5.78893,14.9752,8.03588,28.7165,18.30718,44.63185,24.63708"/><path class="b" d="M468.54923,195.73636c-15.91536-6.3299-29.65666-16.60121-44.63185-24.63708-3.59693-1.93083-7.19009-3.85811-10.79056-5.78893,12.71053-22.41584,27.80558-42.87891,48.28328-58.92475,1.80744-1.41556,3.39711-4.01428,6.18104-2.31938,2.00703,1.21596,1.78573,3.6224,1.76025,5.6476-.37748,28.67286,1.14684,57.3641-.80215,86.02255"/></g><g><path class="b" d="M13.57067,322.23047H56.40856c8.93652,0,16.12305,2.09277,21.56152,6.27734,5.43652,4.18457,8.15625,10.0127,8.15625,17.48242,0,4.11426-.79297,7.63672-2.37598,10.56836-1.58496,2.93262-3.67676,5.27246-6.27734,7.02148-2.60059,1.75-5.46094,2.93262-8.58203,3.5459v1.06445c3.59277,.23633,7.05762,1.24121,10.39062,3.01367,3.33398,1.77344,6.0752,4.35059,8.22754,7.73145,2.15137,3.38086,3.22754,7.60059,3.22754,12.65918,0,5.81641-1.49023,10.76953-4.46875,14.85938s-7.01074,7.21094-12.09277,9.36133c-5.08301,2.15234-10.76953,3.22754-17.05762,3.22754H13.57067v-96.8125Zm23.0498,39.36328h11.34863c3.59277,0,6.52441-.48438,8.79395-1.45312s3.93652-2.31641,5-4.04297c1.06445-1.72559,1.59668-3.74707,1.59668-6.06445,0-3.45117-1.1123-6.19336-3.33398-8.22656-2.22266-2.0332-5.38965-3.0498-9.50391-3.0498h-13.90137v22.83691Zm0,40.92383h12.625c6.33496,0,10.89746-1.14551,13.68848-3.43945,2.78906-2.29297,4.18457-5.42578,4.18457-9.39746,0-2.64746-.58008-4.95312-1.73828-6.91602-1.15918-1.96094-2.88379-3.47461-5.17676-4.53906-2.29395-1.06348-5.16699-1.5957-8.61719-1.5957h-14.96582v25.8877Z"/><path class="b" d="M120.7025,416.4541c-5.41504-2.6709-9.62305-6.66699-12.625-11.98633-3.00293-5.31934-4.50391-11.90332-4.50391-19.75195v-7.23438c0-7.89648,1.57129-14.47949,4.7168-19.75293,3.14355-5.27148,7.36426-9.21973,12.66016-11.84375,5.29492-2.625,11.1582-3.93652,17.58887-3.93652,6.85547,0,12.88379,1.41797,18.08594,4.25488,5.20117,2.83691,9.2666,6.91504,12.19922,12.23438,2.93066,5.31934,4.39746,11.66797,4.39746,19.04395v8.36914h-47.66211v3.47461c0,4.35156,1.3125,7.83789,3.93652,10.46191s5.94531,3.93652,9.96484,3.93652c2.26953,0,4.31445-.34277,6.13477-1.02832s3.29883-1.64258,4.43359-2.87305c1.13477-1.22852,1.7959-2.62402,1.98535-4.18457h20.70996c-.1416,2.55371-.86328,5.27344-2.16309,8.15625-1.30078,2.88477-3.27441,5.5918-5.92188,8.12109-2.64844,2.53027-6.04102,4.58691-10.17773,6.1709-4.1377,1.58301-9.11426,2.37598-14.92969,2.37598-7.14062,0-13.41699-1.33691-18.83008-4.00781Zm30.88672-43.29883v-.49707c0-2.88379-.53125-5.41309-1.5957-7.58887-1.06348-2.17383-2.56543-3.87598-4.50293-5.10645-1.93945-1.22949-4.20898-1.84375-6.80957-1.84375s-4.88281,.61426-6.84375,1.84375c-1.96289,1.23047-3.5,2.93262-4.61035,5.10645-1.11133,2.17578-1.66699,4.70508-1.66699,7.58887v.49707h26.0293Z"/><path class="b" d="M252.01793,367.83594c-2.45898,7.70703-4.72852,14.70508-6.80859,20.99316-2.08105,6.28906-3.86523,11.70215-5.35449,16.24219-1.48926,4.53906-2.66016,7.99121-3.51074,10.35449l-1.77344,4.68066c-3.45215,9.0791-7.91992,15.5918-13.4043,19.54004-5.48535,3.94727-12.7666,5.92188-21.84473,5.92188-2.03418,0-4.19727-.08301-6.49023-.24805-2.29395-.16602-4.03125-.38965-5.21289-.67383v-15.60352c.61426,.14258,1.56055,.25977,2.83691,.35547,1.27734,.09375,2.48242,.1416,3.61719,.1416,4.25586,0,7.44727-.75684,9.5752-2.26953,2.12793-1.51367,3.4043-3.90137,3.83008-7.16406l.2832-1.41797-25.17773-75.39258h24.89453l13.5459,57.30664h.92285l13.97168-57.30664h23.97266c-2.79004,8.65234-5.41504,16.83301-7.87305,24.54004Z"/><path class="b" d="M323.19078,346.30957c5.36621,2.9082,9.51562,7.0459,12.44727,12.41211,2.93164,5.36719,4.39746,11.64355,4.39746,18.83008v6.66699c0,7.70801-1.46582,14.26855-4.39746,19.68164-2.93164,5.41504-7.08105,9.52832-12.44727,12.34082-5.36719,2.8125-11.71484,4.2207-19.04297,4.2207-7.37598,0-13.75977-1.4082-19.14941-4.2207-5.39062-2.8125-9.54004-6.91504-12.44727-12.30469-2.9082-5.39062-4.3623-11.93945-4.3623-19.64648v-6.5957c0-7.09277,1.46484-13.32227,4.39746-18.68945,2.93164-5.36523,7.09277-9.5498,12.48242-12.55273,5.39062-3.00293,11.74902-4.50391,19.0791-4.50391,7.32812,0,13.67578,1.4541,19.04297,4.36133Zm-26.59668,15.17773c-1.91504,1.77344-3.32227,4.09082-4.21973,6.95117-.89844,2.86133-1.34766,5.92188-1.34766,9.18457v7.02148c0,3.16797,.42578,6.19531,1.27637,9.07812,.85156,2.88477,2.23438,5.2373,4.14941,7.05762s4.47949,2.73047,7.69531,2.73047c3.21484,0,5.76758-.91016,7.66016-2.73047,1.89062-1.82031,3.25-4.16016,4.07812-7.02148,.82617-2.86035,1.24121-5.89844,1.24121-9.11426v-7.02148c0-3.30859-.43848-6.39453-1.3125-9.25586-.875-2.86035-2.25879-5.16504-4.14941-6.91504-1.8916-1.74902-4.39746-2.62402-7.51758-2.62402-3.12109,0-5.63867,.88672-7.55371,2.65918Z"/><path class="b" d="M356.84508,343.2959h21.91602v13.12109h1.13477c.66113-1.93848,1.83105-4.00781,3.51074-6.20605,1.67773-2.19922,4.04199-4.08984,7.0918-5.67383s6.93848-2.37598,11.66699-2.37598c7.6123,0,13.68848,2.22266,18.22852,6.66699,4.53906,4.44434,6.80859,11.15918,6.80859,20.14258v50.07227h-22.625v-44.04395c0-3.59277-.56738-6.40625-1.70215-8.44043-1.13477-2.03223-2.60156-3.48633-4.39746-4.36133-1.79785-.875-3.71289-1.3125-5.74512-1.3125-2.60059,0-4.90625,.65039-6.91504,1.9502-2.01074,1.30176-3.57031,3.16895-4.68066,5.60352-1.1123,2.43555-1.66699,5.35449-1.66699,8.75879v41.8457h-22.625v-75.74707Z"/><path class="b" d="M481.45934,343.96973c2.88281,1.0166,5.33008,2.4707,7.33984,4.36133,2.00977,1.8916,3.48633,4.11426,4.43359,6.66699h1.06348v-37.87402h22.69629v101.91895h-22.4834v-12.12793h-1.06445c-.61426,1.93945-1.58398,3.7002-2.90723,5.28418-1.32422,1.58398-2.94336,2.94336-4.8584,4.07812s-4.05469,2.00977-6.41895,2.62402c-2.36523,.61328-4.89355,.92188-7.58887,.92188-5.62695,0-10.52148-1.33594-14.68164-4.00781-4.16113-2.66992-7.3877-6.55957-9.68066-11.66699-2.29395-5.10645-3.44043-11.27637-3.44043-18.51074v-9.07812c0-7.23438,1.1582-13.38086,3.47559-18.44043,2.31641-5.05957,5.56738-8.93652,9.75195-11.63184s9.08984-4.04297,14.7168-4.04297c3.54688,0,6.76172,.50879,9.64648,1.52539Zm-7.9082,18.12109c-2.01074,1.37207-3.57129,3.4043-4.68164,6.09961-1.11133,2.69434-1.66602,6.00488-1.66602,9.92871v6.09961c0,3.92578,.55469,7.24707,1.66602,9.96484,1.11035,2.71973,2.68359,4.76465,4.7168,6.13574,2.03223,1.37109,4.39746,2.05664,7.09277,2.05664,2.69434,0,5.05859-.68555,7.0918-2.05664s3.62891-3.36914,4.78809-5.99316c1.1582-2.625,1.7373-5.82715,1.7373-9.61035v-7.58887c0-3.64062-.5918-6.73828-1.77344-9.29102-1.18164-2.55371-2.81348-4.49219-4.89355-5.81641-2.08105-1.32324-4.44531-1.98535-7.09277-1.98535-2.64844,0-4.97656,.68555-6.98535,2.05664Z"/><path class="d" d="M538.76598,419.04297v-96.8125h24.04297l24.89453,55.17969h.78027l24.89453-55.17969h23.90137v96.8125h-20.99316v-60.35645h-1.13477l-20.35547,45.81738h-13.68848l-20.56836-45.81738h-1.06348v60.35645h-20.70996Z"/><path class="d" d="M722.10582,419.04297h-62.2002v-96.8125h23.33398v77.37891h38.86621v19.43359Z"/></g></svg>