<?xml version="1.0" encoding="UTF-8"?><svg id="a" xmlns="http://www.w3.org/2000/svg" viewBox="0 0 732 454"><defs><style>.b,.c,.d{fill:#fff;}.c{opacity:.6;}.d{opacity:.8;}</style></defs><g><path class="b" d="M13.57067,322.23047H56.40856c8.93652,0,16.12305,2.09277,21.56152,6.27734,5.43652,4.18457,8.15625,10.0127,8.15625,17.48242,0,4.11426-.79297,7.63672-2.37598,10.56836-1.58496,2.93262-3.67676,5.27246-6.27734,7.02148-2.60059,1.75-5.46094,2.93262-8.58203,3.5459v1.06445c3.59277,.23633,7.05762,1.24121,10.39062,3.01367,3.33398,1.77344,6.0752,4.35059,8.22754,7.73145,2.15137,3.38086,3.22754,7.60059,3.22754,12.65918,0,5.81641-1.49023,10.76953-4.46875,14.85938s-7.01074,7.21094-12.09277,9.36133c-5.08301,2.15234-10.76953,3.22754-17.05762,3.22754H13.57067v-96.8125Zm23.0498,39.36328h11.34863c3.59277,0,6.52441-.48438,8.79395-1.45312s3.93652-2.31641,5-4.04297c1.06445-1.72559,1.59668-3.74707,1.59668-6.06445,0-3.45117-1.1123-6.19336-3.33398-8.22656-2.22266-2.0332-5.38965-3.0498-9.50391-3.0498h-13.90137v22.83691Zm0,40.92383h12.625c6.33496,0,10.89746-1.14551,13.68848-3.43945,2.78906-2.29297,4.18457-5.42578,4.18457-9.39746,0-2.64746-.58008-4.95312-1.73828-6.91602-1.15918-1.96094-2.88379-3.47461-5.17676-4.53906-2.29395-1.06348-5.16699-1.5957-8.61719-1.5957h-14.96582v25.8877Z"/><path class="b" d="M120.7025,416.4541c-5.41504-2.6709-9.62305-6.66699-12.625-11.98633-3.00293-5.31934-4.50391-11.90332-4.50391-19.75195v-7.23438c0-7.89648,1.57129-14.47949,4.7168-19.75293,3.14355-5.27148,7.36426-9.21973,12.66016-11.84375,5.29492-2.625,11.1582-3.93652,17.58887-3.93652,6.85547,0,12.88379,1.41797,18.08594,4.25488,5.20117,2.83691,9.2666,6.91504,12.19922,12.23438,2.93066,5.31934,4.39746,11.66797,4.39746,19.04395v8.36914h-47.66211v3.47461c0,4.35156,1.3125,7.83789,3.93652,10.46191s5.94531,3.93652,9.96484,3.93652c2.26953,0,4.31445-.34277,6.13477-1.02832s3.29883-1.64258,4.43359-2.87305c1.13477-1.22852,1.7959-2.62402,1.98535-4.18457h20.70996c-.1416,2.55371-.86328,5.27344-2.16309,8.15625-1.30078,2.88477-3.27441,5.5918-5.92188,8.12109-2.64844,2.53027-6.04102,4.58691-10.17773,6.1709-4.1377,1.58301-9.11426,2.37598-14.92969,2.37598-7.14062,0-13.41699-1.33691-18.83008-4.00781Zm30.88672-43.29883v-.49707c0-2.88379-.53125-5.41309-1.5957-7.58887-1.06348-2.17383-2.56543-3.87598-4.50293-5.10645-1.93945-1.22949-4.20898-1.84375-6.80957-1.84375s-4.88281,.61426-6.84375,1.84375c-1.96289,1.23047-3.5,2.93262-4.61035,5.10645-1.11133,2.17578-1.66699,4.70508-1.66699,7.58887v.49707h26.0293Z"/><path class="b" d="M252.01793,367.83594c-2.45898,7.70703-4.72852,14.70508-6.80859,20.99316-2.08105,6.28906-3.86523,11.70215-5.35449,16.24219-1.48926,4.53906-2.66016,7.99121-3.51074,10.35449l-1.77344,4.68066c-3.45215,9.0791-7.91992,15.5918-13.4043,19.54004-5.48535,3.94727-12.7666,5.92188-21.84473,5.92188-2.03418,0-4.19727-.08301-6.49023-.24805-2.29395-.16602-4.03125-.38965-5.21289-.67383v-15.60352c.61426,.14258,1.56055,.25977,2.83691,.35547,1.27734,.09375,2.48242,.1416,3.61719,.1416,4.25586,0,7.44727-.75684,9.5752-2.26953,2.12793-1.51367,3.4043-3.90137,3.83008-7.16406l.2832-1.41797-25.17773-75.39258h24.89453l13.5459,57.30664h.92285l13.97168-57.30664h23.97266c-2.79004,8.65234-5.41504,16.83301-7.87305,24.54004Z"/><path class="b" d="M323.19078,346.30957c5.36621,2.9082,9.51562,7.0459,12.44727,12.41211,2.93164,5.36719,4.39746,11.64355,4.39746,18.83008v6.66699c0,7.70801-1.46582,14.26855-4.39746,19.68164-2.93164,5.41504-7.08105,9.52832-12.44727,12.34082-5.36719,2.8125-11.71484,4.2207-19.04297,4.2207-7.37598,0-13.75977-1.4082-19.14941-4.2207-5.39062-2.8125-9.54004-6.91504-12.44727-12.30469-2.9082-5.39062-4.3623-11.93945-4.3623-19.64648v-6.5957c0-7.09277,1.46484-13.32227,4.39746-18.68945,2.93164-5.36523,7.09277-9.5498,12.48242-12.55273,5.39062-3.00293,11.74902-4.50391,19.0791-4.50391,7.32812,0,13.67578,1.4541,19.04297,4.36133Zm-26.59668,15.17773c-1.91504,1.77344-3.32227,4.09082-4.21973,6.95117-.89844,2.86133-1.34766,5.92188-1.34766,9.18457v7.02148c0,3.16797,.42578,6.19531,1.27637,9.07812,.85156,2.88477,2.23438,5.2373,4.14941,7.05762s4.47949,2.73047,7.69531,2.73047c3.21484,0,5.76758-.91016,7.66016-2.73047,1.89062-1.82031,3.25-4.16016,4.07812-7.02148,.82617-2.86035,1.24121-5.89844,1.24121-9.11426v-7.02148c0-3.30859-.43848-6.39453-1.3125-9.25586-.875-2.86035-2.25879-5.16504-4.14941-6.91504-1.8916-1.74902-4.39746-2.62402-7.51758-2.62402-3.12109,0-5.63867,.88672-7.55371,2.65918Z"/><path class="b" d="M356.84508,343.2959h21.91602v13.12109h1.13477c.66113-1.93848,1.83105-4.00781,3.51074-6.20605,1.67773-2.19922,4.04199-4.08984,7.0918-5.67383s6.93848-2.37598,11.66699-2.37598c7.6123,0,13.68848,2.22266,18.22852,6.66699,4.53906,4.44434,6.80859,11.15918,6.80859,20.14258v50.07227h-22.625v-44.04395c0-3.59277-.56738-6.40625-1.70215-8.44043-1.13477-2.03223-2.60156-3.48633-4.39746-4.36133-1.79785-.875-3.71289-1.3125-5.74512-1.3125-2.60059,0-4.90625,.65039-6.91504,1.9502-2.01074,1.30176-3.57031,3.16895-4.68066,5.60352-1.1123,2.43555-1.66699,5.35449-1.66699,8.75879v41.8457h-22.625v-75.74707Z"/><path class="b" d="M481.45934,343.96973c2.88281,1.0166,5.33008,2.4707,7.33984,4.36133,2.00977,1.8916,3.48633,4.11426,4.43359,6.66699h1.06348v-37.87402h22.69629v101.91895h-22.4834v-12.12793h-1.06445c-.61426,1.93945-1.58398,3.7002-2.90723,5.28418-1.32422,1.58398-2.94336,2.94336-4.8584,4.07812s-4.05469,2.00977-6.41895,2.62402c-2.36523,.61328-4.89355,.92188-7.58887,.92188-5.62695,0-10.52148-1.33594-14.68164-4.00781-4.16113-2.66992-7.3877-6.55957-9.68066-11.66699-2.29395-5.10645-3.44043-11.27637-3.44043-18.51074v-9.07812c0-7.23438,1.1582-13.38086,3.47559-18.44043,2.31641-5.05957,5.56738-8.93652,9.75195-11.63184s9.08984-4.04297,14.7168-4.04297c3.54688,0,6.76172,.50879,9.64648,1.52539Zm-7.9082,18.12109c-2.01074,1.37207-3.57129,3.4043-4.68164,6.09961-1.11133,2.69434-1.66602,6.00488-1.66602,9.92871v6.09961c0,3.92578,.55469,7.24707,1.66602,9.96484,1.11035,2.71973,2.68359,4.76465,4.7168,6.13574,2.03223,1.37109,4.39746,2.05664,7.09277,2.05664,2.69434,0,5.05859-.68555,7.0918-2.05664s3.62891-3.36914,4.78809-5.99316c1.1582-2.625,1.7373-5.82715,1.7373-9.61035v-7.58887c0-3.64062-.5918-6.73828-1.77344-9.29102-1.18164-2.55371-2.81348-4.49219-4.89355-5.81641-2.08105-1.32324-4.44531-1.98535-7.09277-1.98535-2.64844,0-4.97656,.68555-6.98535,2.05664Z"/><path class="b" d="M538.76598,419.04297v-96.8125h24.04297l24.89453,55.17969h.78027l24.89453-55.17969h23.90137v96.8125h-20.99316v-60.35645h-1.13477l-20.35547,45.81738h-13.68848l-20.56836-45.81738h-1.06348v60.35645h-20.70996Z"/><path class="b" d="M722.10582,419.04297h-62.2002v-96.8125h23.33398v77.37891h38.86621v19.43359Z"/></g><g><path class="c" d="M252.62987,74.89629c-.36464-4.72888,3.94562-5.21272,6.60959-6.76492,33.51373-19.52913,67.13939-38.87429,100.69653-58.32411,4.59162-2.65692,8.4469-4.25231,14.04585-.94939,33.70498,19.88298,67.73141,39.22087,101.53025,58.94146,2.62432,1.53414,6.85878,2.15502,6.73606,6.72504-4.65309,.49816-8.21247,3.40405-12.05321,5.60975-34.30074,19.69173-68.56182,39.45551-102.82996,59.1977-19.87218-11.58039-39.48812-23.61554-59.68507-34.60017-18.33077-9.97046-35.34399-22.40286-55.05005-29.83537m112.63055-51.25976c-24.38448,13.97358-48.7943,27.90046-73.11378,41.98972-2.15502,1.24903-5.99224,1.93491-5.40022,5.23784,.52702,2.93476,4.18027,3.20179,6.66379,4.108,23.77792,8.67075,48.40079,12.33127,73.64785,12.1398,25.24376-.14431,50.01072-3.28133,73.86091-11.96288,2.4908-.90973,6.17643-1.20585,6.55187-4.23072,.46577-3.75437-3.60257-4.5773-6.09337-6.03939-22.8358-13.36724-45.7366-26.61529-68.64114-39.86334-2.28854-1.32483-4.50855-3.52325-7.47592-1.37903"/><path class="b" d="M252.63009,74.89409c19.70605,7.43273,36.71927,19.86491,55.05005,29.83537,20.19342,10.98485,39.81288,23.02352,59.68507,34.60039,.065,44.11587,.12999,88.23152,.19851,132.34387-19.26562-8.3244-36.52076-20.27296-54.75393-30.45625-17.98067-10.03898-35.71216-20.52193-53.57011-30.77397-3.95994-2.274-7.3966-4.4473-7.34593-10.02797,.36817-41.84166,.51601-83.67979,.73633-125.52144m15.8977,120.67337c.21658,3.1152,2.25615,4.77581,4.73968,6.21256,23.12465,13.3527,46.22396,26.74881,69.34134,40.11605,1.7364,1.00359,3.57393,2.74704,5.62054,1.46209,2.62079-1.64606,1.17324-4.37526,.84121-6.57346-3.4728-22.94795-11.64539-44.282-22.56149-64.6378-1.46914-2.73999-3.23088-5.30658-6.6314-5.96359,1.00734-7.37479-4.3931-12.03867-7.7467-17.38491-9.88365-15.77145-22.32685-29.42733-36.56394-41.36883-2.78317-2.33194-8.82608-7.65284-9.0138,1.30676-.56668,27.70547,.0108,55.43628,.25624,83.15629,.0108,1.23097,1.11904,2.45114,1.71833,3.67484"/><path class="d" d="M367.56394,271.67724c-.06874-44.11587-.13374-88.23175-.19874-132.34762,34.26835-19.74219,68.52922-39.50244,102.82996-59.1977,3.84096-2.20195,7.40013-5.11159,12.05321-5.606,1.87344,41.802,.56316,83.62184,.69667,125.43464,.01454,4.19459-2.05763,7.20536-5.56634,9.20505-36.58928,20.85418-73.20742,41.67928-109.81477,62.51164m45.06152-106.11481c-13.33838,20.74578-21.46052,43.54545-26.37712,67.56528-.66429,3.26326-2.16956,7.63499,.55236,9.81513,3.09714,2.47648,6.29563-1.2237,9.0788-2.81556,22.0272-12.56944,43.96781-25.28341,65.87956-38.0441,2.51592-1.46562,5.99576-2.26695,5.98871-6.25597,1.93844-28.50327,.42237-57.03894,.79406-85.55675,.02534-2.01423,.24919-4.40764-1.74719-5.62054-2.77238-1.6822-4.3497,.89893-6.14757,2.31035-20.37034,15.95917-35.3799,36.31145-48.02161,58.60216"/><path class="b" d="M365.26042,23.63653c2.96737-2.14422,5.18738,.0542,7.47592,1.37903,22.90454,13.24805,45.80534,26.4961,68.64114,39.86334,2.4908,1.46209,6.55914,2.28501,6.09337,6.03939-.37544,3.02487-4.06107,3.32099-6.55187,4.23072-23.85019,8.68155-48.61716,11.81857-73.86091,11.96288,.1084-12.70296,.53077-25.41671,.22033-38.1091-.20579-8.46144,2.04309-17.19367-2.01798-25.36626"/><path class="d" d="M365.26042,23.63653c4.06107,8.17259,1.81219,16.90482,2.01798,25.36626,.31044,12.69238-.11193,25.40614-.22033,38.1091-25.24706,.19146-49.86993-3.46905-73.64785-12.1398-2.48353-.90621-6.13677-1.17324-6.66379-4.108-.59202-3.30292,3.2452-3.9888,5.40022-5.23784,24.31948-14.08926,48.7293-28.01613,73.11378-41.98972"/><path class="c" d="M319.87678,166.18287c3.40053,.65702,5.16579,3.22361,6.63493,5.96337,10.91258,20.35954,19.08517,41.69007,22.55775,64.6378,.33578,2.19842,1.7798,4.9274-.84099,6.57368-2.04684,1.28495-3.88415-.4585-5.61702-1.45857-23.11738-13.37077-46.22022-26.76335-69.34134-40.11958-2.48705-1.43675-4.52662-3.09736-4.74695-6.21256,17.12162-9.79354,34.23574-19.5906,51.35362-29.38414"/><path class="d" d="M319.87678,166.18287c-17.11787,9.79354-34.232,19.5906-51.34987,29.38414-.59929-1.2237-1.70401-2.44387-1.71481-3.67131-.24897-27.72354-.82667-55.45435-.25624-83.15982,.18419-8.9596,6.22688-3.6387,9.0138-1.30323,14.23357,11.93776,26.67676,25.59386,36.56042,41.36531,3.3536,5.34976,8.75382,10.0099,7.7467,17.38491"/><path class="c" d="M467.74578,195.82656c.0108,3.9888-3.47258,4.79388-5.98519,6.25575-21.91527,12.76443-43.85589,25.4784-65.87956,38.0441-2.7867,1.59208-5.98144,5.29204-9.08232,2.81578-2.7217-2.18036-1.21643-6.55187-.54861-9.81513,4.91285-24.01631,13.03499-46.81973,26.37337-67.56176,3.58098,1.92037,7.15468,3.83722,10.73213,5.75759,14.89411,7.99237,28.561,18.20805,44.39018,24.50368"/><path class="b" d="M467.74578,195.82656c-15.82918-6.29563-29.49607-16.51131-44.39018-24.50368-3.57745-1.92037-7.15116-3.83722-10.73213-5.75759,12.64171-22.29446,27.65502-42.64673,48.02183-58.60568,1.79765-1.40789,3.37872-3.99255,6.14757-2.30682,1.99616,1.20938,1.77606,3.60279,1.75072,5.61702-.37544,28.5176,1.14063,57.05348-.7978,85.55675"/></g></svg>