<?xml version="1.0" encoding="UTF-8"?><svg id="a" xmlns="http://www.w3.org/2000/svg" viewBox="0 0 500 500"><defs><style>.b,.c{fill:none;}.c{stroke:#095ea1;stroke-linecap:round;stroke-linejoin:round;stroke-width:0px;}.d{fill:#095ea1;}.e{fill:#59ade0;}.f{fill:#547ebe;}</style></defs><path class="b" d="M289.85693,382.9375c-2.4248,8.82153-4.56152,17.75391-6.41211,26.79541-.20898,1.02686-.46729,2.11914-.71973,3.24023,.25342-1.12134,.5127-2.21411,.72266-3.24146,1.84961-9.04053,3.98535-17.97266,6.40918-26.79419Z"/><path class="b" d="M419.8125,192.21509c1.71289,1.0376,2.45996,2.59058,2.77686,4.31299-.31543-1.72314-1.06104-3.27734-2.77344-4.31763-3.22754-1.95825-5.49805-.50439-7.59131,1.37207,2.09375-1.875,4.36621-3.3291,7.58789-1.36743Z"/><path class="b" d="M87.47949,353.27686c1.31982,1.2915,2.93311,2.37109,4.68066,3.38184,15.48242,8.94019,30.95605,17.89648,46.42969,26.85205-15.47314-8.95508-30.9458-17.91064-46.42529-26.85278-1.74951-1.0105-3.36377-2.09009-4.68506-3.3811Z"/><path class="b" d="M80.55908,276.7312c.18701,21.0625,.48047,42.12671,.66699,63.1875,.01318,1.51147,1.00342,3.01294,1.93359,4.5144-.92871-1.50122-1.91602-3.00195-1.9292-4.50928-.18896-21.06348-.48438-42.12915-.67139-63.19263Z"/><path class="b" d="M215.09863,427.6106c1.27734,.35571,2.59912,.30835,3.97754-.55688,.15527-.09766,.29102-.19849,.41553-.30078-.1377,.10034-.26416,.20386-.41748,.30005-1.37793,.86499-2.69873,.91235-3.97559,.55762Z"/><path class="b" d="M80.79688,199.12817c.0083-.40796,.02344-.78979,.04053-1.16284-.02002,.36841-.03662,.74951-.04541,1.16357-.41992,20.54541-.45898,41.09937-.3457,61.65625-.11279-20.55762-.07275-41.11133,.35059-61.65698Z"/><path class="b" d="M421.42627,346.5791c.00635,2.46387-.7793,4.20532-1.98047,5.5498,1.20117-1.34375,1.98779-3.08447,1.98389-5.54858,2.66406-39.17236,1.47461-78.38086,1.26855-117.57983,.20215,39.19849,1.39209,78.40674-1.27197,117.57861Z"/><path class="b" d="M285.36475,427.01733c4.87842,2.72681,9.85742-2.78101,14.23975-5.34692-4.38623,2.56641-9.3584,8.07007-14.23975,5.34692Z"/><path class="e" d="M150.42285,192.34497c17.55664,9.55029,34.85596,19.573,52.08936,29.71655,4.18311,2.4624,8.36328,4.93066,12.5415,7.40259,12.12842,7.17529,24.24658,14.36963,36.4209,21.46191v-.00024c58.01855-33.42505,116.0249-66.88086,174.09863-100.22632,4.9751-2.85205,9.67383-6.39941,15.1333-8.28662,1.67676-.57983,3.42236-1.00903,5.27295-1.20728,.20801-7.7373-6.96143-8.78857-11.4043-11.38599-57.22412-33.38843-114.8335-66.12891-171.89844-99.79224-9.47949-5.59229-16.00684-2.89111-23.78076,1.60742-56.81445,32.92993-113.74512,65.68262-170.48682,98.74707-4.51025,2.62793-11.80762,3.44702-11.19043,11.45337l.00049,.00024v-.00391c33.36377,12.58398,62.16846,33.63281,93.20361,50.51343Zm-26.29932-66.20459c41.1748-23.85425,82.50244-47.43335,123.78711-71.0918,5.02393-3.63013,8.78271,.0918,12.65723,2.33472,38.7793,22.43018,77.55225,44.85986,116.21484,67.4917,4.21729,2.47559,11.10498,3.86865,10.31641,10.2251-.63574,5.12134-6.87549,5.6228-11.09277,7.16309-40.38037,14.69849-82.3125,20.00952-125.05225,20.25391-42.74512,.32422-84.43311-5.87329-124.69092-20.55347-4.20508-1.53442-10.39014-1.98657-11.28223-6.95532-1.00244-5.59204,5.49414-6.75317,9.14258-8.86792Z"/><path class="d" d="M251.47461,250.92603c-12.17432-7.09229-24.29248-14.28662-36.4209-21.46191-4.17822-2.47192-8.3584-4.94019-12.5415-7.40259-17.2334-10.14355-34.53271-20.16626-52.08936-29.71655-31.03516-16.88062-59.83984-37.92944-93.20361-50.51343v.00391c-.37305,70.8396-.62354,141.67334-1.24658,212.51318-.08594,9.44849,5.73242,13.12793,12.43701,16.97803,30.23486,17.35742,60.25586,35.10596,90.69824,52.10254,30.87012,17.24121,60.08447,37.47095,92.70264,51.56494-.11621-74.68848-.22607-149.37671-.33594-224.06494v-.00317Zm-31.98291,175.8269c-.12451,.10229-.26025,.20312-.41553,.30078-1.37842,.86523-2.7002,.9126-3.97754,.55688-1.93457-.53735-3.76709-2.00708-5.53418-3.0271-23.6626-13.68604-47.31787-27.38159-70.97461-41.07275-15.47363-8.95557-30.94727-17.91187-46.42969-26.85205-1.74756-1.01074-3.36084-2.09033-4.68066-3.38184-1.85889-1.81616-3.13379-4.0542-3.35205-7.13721l.00488-.00269c-.27881-.56836-.62158-1.13599-.97266-1.70386-.93018-1.50146-1.92041-3.00293-1.93359-4.5144-.18652-21.06079-.47998-42.125-.66699-63.1875-.04736-5.31567-.0835-10.6311-.11279-15.94604-.11328-20.55688-.07422-41.11084,.3457-61.65625,.00879-.41406,.02539-.79517,.04541-1.16357,.62939-13.50244,7.04492-4.61768,11.85254-1.0437,29.75977,22.12451,43.23096,40.64746,63.43799,65.90601,6.67822,8.34766,15.15527,21.89087,21.89062,35.3623,18.52295,37.0459,33.67822,79.14355,42.47949,117.7334,.80859,3.54419,2.84668,8.01611-1.00635,10.82959Z"/><path class="c" d="M202.51221,222.06152c4.18311,2.4624,8.36328,4.93066,12.5415,7.40259"/><path class="f" d="M445.97998,141.20801c-1.85059,.19678-3.59668,.62549-5.27344,1.20483-5.45947,1.88721-10.1582,5.43457-15.1333,8.28662-58.07373,33.34546-116.08008,66.80127-174.09863,100.22632v.00342c.10986,74.68823,.21973,149.37646,.33594,224.06494v.00586c61.97949-35.27075,123.97656-70.5293,185.9248-105.83691,5.94043-3.3855,9.44873-8.48291,9.42432-15.58472-.22607-70.79224,1.99219-141.59644-1.17969-212.37036Zm-24.55029,205.37231c.00391,2.46411-.78271,4.20483-1.98389,5.54858-2.08887,2.33887-5.44385,3.46729-8.14404,5.03687l-.00879,.00488h-.00049l-.00244,.00146c-.24756,.14429-.49561,.28784-.74316,.43213-36.85645,21.46533-73.75488,42.84595-110.79297,63.97778-.0498,.02832-.09961,.05933-.14941,.08838-4.38232,2.56592-9.36133,8.07373-14.23975,5.34692-.33008-.18408-.65918-.40552-.98779-.66797-3.75146-3.00488-2.76025-8.46802-1.65186-13.37622,.25244-1.12109,.51074-2.21338,.71973-3.24023,1.85059-9.0415,3.9873-17.97388,6.41211-26.79541,8.47803-30.85571,20.68115-60.28296,38.24316-87.59302,21.40332-37.74609,46.82178-72.20386,81.3042-99.22363,.95166-.74536,1.86768-1.6853,2.82031-2.53833,2.09326-1.87646,4.36377-3.33032,7.59131-1.37207,1.7124,1.04028,2.45801,2.59448,2.77344,4.31763,.30811,1.677,.2085,3.51489,.1875,5.19702-.11963,9.09082-.12549,18.18286-.07861,27.27539,.20605,39.19897,1.39551,78.40747-1.26855,117.57983Z"/><path class="d" d="M251.32715,97.99561c.52588,21.48926-.18945,43.0144-.37305,64.52148,42.73975-.24438,84.67188-5.55542,125.05225-20.25391,4.21729-1.54028,10.45703-2.04175,11.09277-7.16309,.78857-6.35645-6.09912-7.74951-10.31641-10.2251-38.6626-22.63184-77.43555-45.06152-116.21484-67.4917-3.87451-2.24292-7.6333-5.96484-12.65723-2.33472,6.87598,13.83691,3.06836,28.62109,3.4165,42.94702Z"/><path class="f" d="M126.26318,141.96362c40.25781,14.68018,81.9458,20.87769,124.69092,20.55347,.18359-21.50708,.89893-43.03223,.37305-64.52148-.34814-14.32593,3.45947-29.11011-3.4165-42.94702-41.28467,23.65845-82.6123,47.23755-123.78711,71.0918-3.64844,2.11475-10.14502,3.27588-9.14258,8.86792,.89209,4.96875,7.07715,5.4209,11.28223,6.95532Z"/><path class="e" d="M178.01855,298.18994l-5.66016,2.89062-88.22363,45.05859-.00098,.00049-.00146-.00269-.00488,.00269c.21826,3.08301,1.49316,5.32104,3.35205,7.13721,1.32129,1.29102,2.93555,2.37061,4.68506,3.3811,15.47949,8.94214,30.95215,17.89771,46.42529,26.85278,23.65674,13.69116,47.31201,27.38672,70.97461,41.07275,1.76709,1.02002,3.59961,2.48975,5.53418,3.0271,1.27686,.35474,2.59766,.30737,3.97559-.55762,.15332-.09619,.27979-.19971,.41748-.30005,3.85303-2.81348,1.81494-7.2854,1.00635-10.82959-8.80127-38.58984-23.95654-80.6875-42.47949-117.7334Z"/><path class="f" d="M84.13477,346.13916l88.22363-45.05859,5.66016-2.89062c-6.73535-13.47144-15.2124-27.01465-21.89062-35.3623-20.20703-25.25854-33.67822-43.78149-63.43799-65.90601-4.80762-3.57397-11.22314-12.45874-11.85254,1.0437-.01709,.37305-.03223,.75488-.04053,1.16284-.42334,20.54565-.46338,41.09937-.35059,61.65698,.0293,5.31494,.06543,10.63037,.11279,15.94604,.18701,21.06348,.48242,42.12915,.67139,63.19263,.01318,1.50732,1.00049,3.00806,1.9292,4.50928,.35107,.56787,.69385,1.1355,.97266,1.70386l.00146,.00269,.00098-.00049Z"/><path class="e" d="M346.27051,305.09253c-6.05713-3.25122-12.10742-6.49658-18.17041-9.7478v-.00024c-17.56201,27.31006-29.76514,56.7373-38.24316,87.59302-2.42383,8.82153-4.55957,17.75366-6.40918,26.79419-.20996,1.02734-.46924,2.12012-.72266,3.24146-1.1084,4.9082-2.09961,10.37134,1.65186,13.37622,.32861,.26245,.65771,.48389,.98779,.66797,4.88135,2.72314,9.85352-2.78052,14.23975-5.34692,.0498-.02905,.09961-.06006,.14941-.08838,37.03809-21.13184,73.93652-42.51245,110.79297-63.97778,.24756-.14429,.49561-.28784,.74316-.43213l.00244-.00146h.00049l.00879-.00488c2.7002-1.56958,6.05518-2.698,8.14404-5.03687,1.20117-1.34448,1.98682-3.08594,1.98047-5.5498-26.80029-10.65894-49.93896-27.95483-75.15576-41.48657Z"/><path class="d" d="M346.27051,305.09253c25.2168,13.53174,48.35547,30.82764,75.15576,41.48657,2.66406-39.17188,1.47412-78.38013,1.27197-117.57861-.04688-9.09253-.04102-18.18457,.07861-27.27539,.021-1.68213,.12061-3.52002-.1875-5.19702-.31689-1.72241-1.06396-3.27539-2.77686-4.31299-3.22168-1.96167-5.49414-.50757-7.58789,1.36743-.95264,.85303-1.86865,1.79297-2.82031,2.53833-34.48242,27.01978-59.90088,61.47754-81.3042,99.22363v.00024c6.06299,3.25122,12.11328,6.49658,18.17041,9.7478Z"/></svg>